<?xml version="1.0" standalone="no"?><!DOCTYPE svg PUBLIC "-//W3C//DTD SVG 1.1//EN" "http://www.w3.org/Graphics/SVG/1.1/DTD/svg11.dtd"><svg t="1780987755555" class="icon" viewBox="0 0 1024 1024" version="1.1" xmlns="http://www.w3.org/2000/svg" p-id="5113" xmlns:xlink="http://www.w3.org/1999/xlink" width="200" height="200"><path d="M956.637627 703.107329a46.540317 46.540317 0 1 1 41.625168 83.250337L532.821224 1019.084851a46.540317 46.540317 0 0 1-41.625168 0L25.741685 786.357666a46.540317 46.540317 0 0 1 41.625168-83.263137L512.00864 925.441023l444.628987-222.333694z m0-232.727185a46.540317 46.540317 0 1 1 41.625168 83.250336L532.821224 786.357666a46.540317 46.540317 0 0 1-41.625168 0L25.741685 553.63048a46.540317 46.540317 0 0 1 41.625168-83.250336L512.00864 692.688237l444.628987-222.308093zM532.834024 4.925773l465.428771 232.727185c34.303644 17.151822 34.303644 66.111314 0 83.263136L532.821224 553.63048a46.540317 46.540317 0 0 1-41.625168 0L25.741685 320.916094c-34.303644-17.151822-34.303644-66.111314 0-83.263136L491.196056 4.925773a46.540317 46.540317 0 0 1 41.625168 0zM512.00864 98.595201L150.642789 279.278126 512.00864 459.961052l361.365851-180.682926L512.00864 98.595201z" fill="#000000" p-id="5114"></path></svg>